<?xml version="1.0" encoding="UTF-8" standalone="no"?>
<!-- Created with Inkscape (http://www.inkscape.org/) -->

<svg
   width="9.999999mm"
   height="10.000001mm"
   viewBox="0 0 9.999999 10.000001"
   version="1.1"
   id="svg1"
   xmlns="http://www.w3.org/2000/svg"
   xmlns:svg="http://www.w3.org/2000/svg">
  <defs
     id="defs1">
    <linearGradient
       id="swatch2">
      <stop
         style="stop-color:#000000;stop-opacity:1;"
         offset="0"
         id="stop2" />
    </linearGradient>
    <filter
       style="color-interpolation-filters:sRGB"
       id="filter117-9"
       x="0"
       y="0"
       width="1"
       height="1.0069446">
      <feColorMatrix
         type="hueRotate"
         values="180"
         result="color1"
         id="feColorMatrix116-2" />
      <feColorMatrix
         values="-1 0 0 0 1 0 -1 0 0 1 0 0 -1 0 1 -0.21 -0.72 -0.07 2 0 "
         result="color2"
         id="feColorMatrix117-7" />
    </filter>
  </defs>
  <g
     id="layer1"
     transform="translate(-25.000001,-10.000001)">
    <g
       id="g123">
      <rect
         style="fill:#ffffff;fill-opacity:1;stroke:#ffffff;stroke-width:0.0502685;stroke-linecap:butt;stroke-linejoin:miter;stroke-miterlimit:0;stroke-dasharray:none;stroke-opacity:1;paint-order:fill markers stroke"
         id="rect122"
         width="5.9497313"
         height="7.9497313"
         x="27.025135"
         y="11.025134" />
      <circle
         style="fill:#000000;fill-opacity:1;stroke:none;stroke-width:0.0529827;stroke-dasharray:none;stroke-opacity:1"
         id="path115-9"
         cx="30"
         cy="15"
         r="5" />
      <g
         id="g26-1-1-4-9-91"
         transform="translate(27.5,11.38)"
         style="filter:url(#filter117-9)">
        <path
           style="fill:none;fill-opacity:1;stroke:#000000;stroke-width:0.3;stroke-dasharray:none;stroke-opacity:1"
           d="M 1.5,3.25 H 3"
           id="path3-37-5-0-2-5" />
        <path
           style="fill:none;fill-opacity:1;stroke:#000000;stroke-width:0.3;stroke-dasharray:none;stroke-opacity:1"
           d="m 1.5,2.5 h 2"
           id="path3-1-9-5-2-1-4" />
        <path
           style="fill:none;fill-opacity:1;stroke:#000000;stroke-width:0.3;stroke-dasharray:none;stroke-opacity:1"
           d="m 1.5,1.75 h 2"
           id="path3-1-5-0-9-4-1-4" />
        <path
           style="fill:none;fill-opacity:1;stroke:#000000;stroke-width:0.3;stroke-dasharray:none;stroke-opacity:1"
           d="M 2.5,4.75 H 1"
           id="path3-3-1-8-1-7-4" />
        <path
           style="fill:none;fill-opacity:1;stroke:#000000;stroke-width:0.3;stroke-dasharray:none;stroke-opacity:1"
           d="m 2.5,5.5 h -2"
           id="path3-1-8-1-6-5-1-96" />
        <path
           style="fill:none;fill-opacity:1;stroke:#000000;stroke-width:0.3;stroke-dasharray:none;stroke-opacity:1"
           d="m 2.5,6.25 h -2"
           id="path3-1-5-4-4-3-7-5-0" />
        <path
           id="path1-68-9-1-4-5"
           style="fill:#000000;stroke-width:0.265864"
           d="M 2.5001058,0 A 2.5,2.5 0 0 0 0,2.5001058 2.5,2.5 0 0 0 2.5001058,5.0002116 2.5,2.5 0 0 0 5.0002116,2.5001058 2.5,2.5 0 0 0 2.5001058,0 Z m 0,0.50022786 A 2,2 0 0 1 4.4999837,2.5001058 2,2 0 0 1 2.5001058,4.4999837 2,2 0 0 1 0.50022786,2.5001058 2,2 0 0 1 2.5001058,0.50022786 Z" />
        <circle
           style="fill:#000000;stroke-width:0.0531728"
           id="path1-6-6-6-0-1-0"
           cx="3.5"
           cy="6.6999998"
           r="0.5" />
        <path
           style="fill:none;fill-opacity:1;stroke:#ffffff;stroke-width:0.5;stroke-dasharray:none;stroke-opacity:1"
           d="M 1,7 C -1.7539396e-4,6.0005986 -7.9387729e-4,4.9993593 2,4 1.0002935,2.9999997 0.99837681,1.0009746 3.0001942,1 3.9992165,2.0031001 4.0008806,2.9980081 2,4 3.0011996,5.0018581 3.0009693,7.001762 1,7 Z"
           id="path2-3-4-5-2-7" />
        <path
           style="fill:none;fill-opacity:1;stroke:#000000;stroke-width:0.4;stroke-dasharray:none;stroke-opacity:1"
           d="M 1,7 C -1.7539396e-4,6.0005986 -7.9387729e-4,4.9993593 2,4 1.0002935,2.9999997 0.99837681,1.0009746 3.0001942,1 3.9992165,2.0031001 4.0008806,2.9980081 2,4 3.0011996,5.0018581 3.0009693,7.001762 1,7 Z"
           id="path4-9-5-0-7-33" />
        <path
           id="path8-5-8-5-93-1"
           style="fill:#000000;fill-opacity:1;stroke-width:0.265864"
           d="M 2.5001058,0 A 2.5,2.5 0 0 0 1.9998779,0.05684408 V 0.56999105 A 2,2 0 0 1 2.5001058,0.50022786 2,2 0 0 1 4.4999837,2.5001058 2,2 0 0 1 2.5001058,4.4999837 2,2 0 0 1 1.9998779,4.4302205 v 0.513147 A 2.5,2.5 0 0 0 2.5001058,5.0002116 2.5,2.5 0 0 0 5.0002116,2.5001058 2.5,2.5 0 0 0 2.5001058,0 Z" />
      </g>
    </g>
  </g>
</svg>
